<svg id="BG" xmlns="http://www.w3.org/2000/svg" width="962" height="561"><defs><style>.cls-3{fill:#002dd4;fill-rule:evenodd;opacity:.1}</style></defs><path id="BG-2" data-name="BG" fill="#0674ec" d="M0 0h960v561H0z"/><path d="M.991 7206.91s119.627 13.45 234.269-44.85c0 0 129.6-70.65 324.986 16.81 0 0 133.584 69.53 321-20.18 0 0 36.885-23.55 78.755-3.36v60.55H-.006z" transform="translate(0 -6656)" opacity=".3" fill="#002dd4" fill-rule="evenodd"/><path class="cls-3" d="M-1 6935.11s329 460.78 960-61.11v343H-1v-281.89z" transform="translate(0 -6656)"/><path id="Shape_3_copy" data-name="Shape 3 copy" class="cls-3" d="M959 7032.69S429 7305.71-1 6874v343h960v-184.31z" transform="translate(0 -6656)"/><path d="M1.993 7091.52s86.091 5.6 216.228-43.74c0 0 156.165-66.17 353.374 21.31 0 0 223.236 91.96 389.411-16.82V7216H-.009z" transform="translate(0 -6656)" opacity=".2" fill="#002dd4" fill-rule="evenodd"/><path d="M0 7024.5s100.9-49.32 240.752 17.93c0 0 153.842 82.94 288.7 25.78 0 0 271.721-122.17 430.557-20.17v166.99H1.995z" transform="translate(0 -6656)" opacity=".15" fill="#002dd4" fill-rule="evenodd"/><path class="cls-3" d="M0 6996.12s154.84-48.24 296.693 62.82c0 0 141.854 106.58 303.687 2.24 0 0 169.824-139.1 361.626-70.67V7216H1z" transform="translate(0 -6656)"/></svg>-122.17,430.557-20.17v166.99H1.995Z" transform="translate(0 -6656)"/>
  <path class="cls-3" d="M0,6996.12s154.84-48.24,296.693,62.82c0,0,141.854,106.58,303.687,2.24,0,0,169.824-139.1,361.626-70.67V7216H1Z" transform="translate(0 -6656)"/>
</svg>
